Coordinates
version=1
nRows=8
nColumns=63
inDegrees=yes

Units are S.I. units (second, meters, Newtons, ...)
If the header above contains a line with 'inDegrees', this indicates whether rotational values are in degrees (yes) or radians (no).

endheader
time	pelvis_tilt	pelvis_list	pelvis_rotation	pelvis_tx	pelvis_ty	pelvis_tz	hip_flexion_r	hip_adduction_r	hip_rotation_r	knee_angle_r	knee_angle_r_beta	ankle_angle_r	subtalar_angle_r	mtp_angle_r	hip_flexion_l	hip_adduction_l	hip_rotation_l	knee_angle_l	knee_angle_l_beta	ankle_angle_l	subtalar_angle_l	mtp_angle_l	L5_S1_Flex_Ext	L5_S1_Lat_Bending	L5_S1_axial_rotation	L4_L5_Flex_Ext	L4_L5_Lat_Bending	L4_L5_axial_rotation	L3_L4_Flex_Ext	L3_L4_Lat_Bending	L3_L4_axial_rotation	L2_L3_Flex_Ext	L2_L3_Lat_Bending	L2_L3_axial_rotation	L1_L2_Flex_Ext	L1_L2_Lat_Bending	L1_L2_axial_rotation	L1_T12_Flex_Ext	L1_T12_Lat_Bending	L1_T12_axial_rotation	Abs_r3	Abs_r2	Abs_r1	Abs_t1	Abs_t2	neck_flexion	neck_bending	neck_rotation	arm_flex_r	arm_add_r	arm_rot_r	elbow_flex_r	pro_sup_r	wrist_flex_r	wrist_dev_r	arm_flex_l	arm_add_l	arm_rot_l	elbow_flex_l	pro_sup_l	wrist_flex_l	wrist_dev_l
3.576923	0.716244	0.388779	86.684780	0.266269	0.999879	0.589616	-0.339170	-3.056836	-14.016900	11.416252	0.199251	32.656425	14.897949	0.000000	0.357477	2.338331	12.924047	9.817032	0.171340	31.366855	-9.247850	0.000000	-0.005887	2.073884	0.639325	-0.010933	2.758266	0.679282	-0.009672	5.042442	0.679282	-0.006728	5.042442	0.559409	-0.005467	4.229065	0.519451	-0.003364	3.212447	0.479493	-0.042050	23.460194	3.555732	0.000000	0.000000	27.916256	-2.181009	33.620283	6.025157	-23.259199	133.641808	5.405511	5.322977	-8.915682	-0.643723	169.954786	-50.959777	77.161508	62.631883	85.622945	15.410941	6.802403
3.596154	0.721060	0.036167	86.818516	0.266664	0.999426	0.588453	-0.102066	-2.975940	-14.094895	11.271308	0.196721	32.612937	14.873320	0.000000	0.642319	2.271620	13.011564	9.706401	0.169409	31.256760	-9.205373	0.000000	0.019226	2.053202	0.462331	0.035705	2.730759	0.491227	0.031587	4.992156	0.491227	0.021973	4.992156	0.404540	0.017853	4.186890	0.375644	0.010986	3.180410	0.346748	0.137330	23.226236	2.571347	0.000000	0.000000	27.872024	-1.331616	35.101461	6.467498	-23.087490	133.766203	5.497820	5.148772	-9.019644	-1.071109	172.849846	-56.442852	76.136757	73.841643	86.123944	12.915771	8.828666
3.615385	0.710492	-0.225680	87.014921	0.267119	0.998958	0.587513	0.027085	-2.910163	-14.303792	11.124025	0.194151	32.625117	14.913804	0.000000	0.839890	2.211037	13.129077	9.574713	0.167110	31.163349	-9.200964	0.000000	0.034629	2.025274	0.300559	0.064310	2.693615	0.319344	0.056892	4.924252	0.319344	0.039578	4.924252	0.262989	0.032157	4.129939	0.244204	0.019787	3.137150	0.225419	0.247353	22.910308	1.671618	0.000000	0.000000	27.752259	-0.673731	36.228396	6.847345	-22.851064	134.320401	5.470221	4.940550	-9.023121	-1.369792	175.781717	-62.894595	75.824036	85.630991	85.929141	12.073125	10.413133
3.634615	0.689471	-0.405630	87.254023	0.267586	0.998462	0.586834	0.065169	-2.858766	-14.615724	10.974511	0.191541	32.682080	15.018175	0.000000	0.967105	2.158442	13.256731	9.440873	0.164774	31.092962	-9.248935	0.000000	0.041427	1.990685	0.153351	0.076934	2.647610	0.162936	0.068060	4.840150	0.162936	0.047347	4.840150	0.134182	0.038469	4.059404	0.124598	0.023671	3.083570	0.115013	0.295907	22.519022	0.852894	0.000000	0.000000	27.576004	-0.256409	36.877609	7.183172	-22.558375	135.375472	5.352538	4.736721	-8.930876	-1.503295	178.288439	-70.089697	76.398803	97.582184	85.371161	12.950535	11.820621
3.653846	0.630201	-0.513292	87.525305	0.268104	0.997941	0.586400	0.029128	-2.851732	-15.019039	10.830312	0.189025	32.782405	15.200192	0.000000	1.023297	2.143146	13.419322	9.289395	0.162131	31.025160	-9.372547	0.000000	0.041264	1.946860	0.019265	0.076632	2.589324	0.020469	0.067793	4.733595	0.020469	0.047161	4.733595	0.016857	0.038318	3.970037	0.015653	0.023578	3.015686	0.014449	0.294746	22.023270	0.107145	0.000000	0.000000	27.321426	-0.121969	37.046211	7.463650	-22.197461	136.868879	5.132979	4.516020	-8.745138	-1.494462	180.290011	-77.829363	78.452643	109.275224	84.727245	14.774417	13.187123
3.673077	0.553614	-0.546521	87.800778	0.268699	0.997415	0.586328	-0.061694	-2.865825	-15.446572	10.707916	0.186888	32.917519	15.404319	0.000000	1.029307	2.145027	13.562520	9.164119	0.159944	30.986514	-9.515801	0.000000	0.033661	1.894540	-0.081955	0.062511	2.519739	-0.087077	0.055301	4.606386	-0.087077	0.038471	4.606386	-0.071711	0.031257	3.863347	-0.066588	0.019234	2.934643	-0.061466	0.240434	21.431420	-0.455809	0.000000	0.000000	26.941826	-0.351107	36.405845	7.667744	-21.795546	138.497969	4.870624	4.305161	-8.487619	-1.394533	181.798904	-85.759465	82.362723	119.907473	84.021028	17.092813	14.555099
3.692308	0.454418	-0.518962	88.057237	0.269412	0.996893	0.586627	-0.183024	-2.908243	-15.884218	10.614288	0.185254	33.098049	15.653849	0.000000	0.991116	2.167966	13.695333	9.048226	0.157921	30.982181	-9.658230	0.000000	0.020354	1.832664	-0.130656	0.037800	2.437444	-0.138822	0.033440	4.455940	-0.138822	0.023263	4.455940	-0.114324	0.018901	3.737169	-0.106158	0.011630	2.838797	-0.097992	0.145388	20.731466	-0.726670	0.000000	0.000000	26.406160	-0.918252	34.974655	7.725811	-21.352028	140.019377	4.532634	4.075293	-8.160454	-1.276816	182.912202	-93.731383	88.327442	128.914158	83.041758	19.470292	15.859695
3.711538	0.315824	-0.441889	88.279072	0.270282	0.996376	0.587270	-0.315245	-2.989883	-16.261290	10.553575	0.184195	33.331591	15.866453	0.000000	0.932754	2.225074	13.716465	8.965922	0.156485	31.035352	-9.684617	0.000000	0.001543	1.758354	-0.123712	0.002866	2.338610	-0.131444	0.002536	4.275261	-0.131444	0.001764	4.275261	-0.108248	0.001433	3.585635	-0.100516	0.000882	2.723690	-0.092784	0.011024	19.890847	-0.688051	0.000000	0.000000	25.685824	-1.696428	32.878332	7.645846	-20.868215	141.217420	4.162080	3.888848	-7.820633	-1.235576	183.884105	-101.781618	96.456267	136.224933	82.443350	21.377822	16.817506
